<svg width="327" height="553" viewBox="0 0 327 553" fill="none" xmlns="http://www.w3.org/2000/svg">
<path fill-rule="evenodd" clip-rule="evenodd" d="M0 16C0 7.16345 7.16344 0 16 0H311C319.837 0 327 7.16344 327 16V92C320.373 92 315 97.3726 315 104C315 110.627 320.373 116 327 116V389C320.373 389 315 394.373 315 401C315 407.627 320.373 413 327 413V537C327 545.837 319.837 553 311 553H16C7.16345 553 0 545.837 0 537V413C6.62742 413 12 407.627 12 401C12 394.373 6.62742 389 0 389V116C6.62742 116 12 110.627 12 104C12 97.3726 6.62742 92 0 92V16Z" fill="white"/>
</svg>
