<svg width="16" height="16" viewBox="0 0 16 16" fill="none" xmlns="http://www.w3.org/2000/svg">
<g clip-path="url(#clip0_130_3354)">
<path d="M7.74937 4.81441C7.16537 4.81441 6.26137 4.15041 5.30937 4.17441C4.05337 4.19041 2.90137 4.90241 2.25337 6.03041C0.949374 8.29441 1.91737 11.6384 3.18937 13.4784C3.81337 14.3744 4.54937 15.3824 5.52537 15.3504C6.46137 15.3104 6.81337 14.7424 7.94937 14.7424C9.07737 14.7424 9.39737 15.3504 10.3894 15.3264C11.3974 15.3104 12.0374 14.4144 12.6534 13.5104C13.3654 12.4704 13.6614 11.4624 13.6774 11.4064C13.6534 11.3984 11.7174 10.6544 11.6934 8.41441C11.6774 6.54241 13.2214 5.64641 13.2934 5.60641C12.4134 4.31841 11.0614 4.17441 10.5894 4.14241C9.35737 4.04641 8.32537 4.81441 7.74937 4.81441ZM9.82937 2.92641C10.3494 2.30241 10.6934 1.43041 10.5974 0.566406C9.85337 0.598406 8.95737 1.06241 8.42137 1.68641C7.94137 2.23841 7.52537 3.12641 7.63737 3.97441C8.46137 4.03841 9.30937 3.55041 9.82937 2.92641Z" fill="white"/>
</g>
<defs>
<clipPath id="clip0_130_3354">
<rect width="16" height="16" fill="white"/>
</clipPath>
</defs>
</svg>
