<svg width="24" height="24" viewBox="0 0 24 24" fill="none" xmlns="http://www.w3.org/2000/svg">
<path d="M18.75 7.50001V21C18.75 21.1989 18.671 21.3897 18.5304 21.5303C18.3897 21.671 18.1989 21.75 18 21.75C17.8011 21.75 17.6103 21.671 17.4697 21.5303C17.329 21.3897 17.25 21.1989 17.25 21V8.25001H9.75002V12C9.75002 12.1483 9.70603 12.2934 9.62362 12.4167C9.5412 12.54 9.42406 12.6362 9.28702 12.6929C9.14997 12.7497 8.99916 12.7645 8.85368 12.7356C8.70819 12.7067 8.57455 12.6352 8.46966 12.5303L3.96966 8.03033C3.82901 7.88968 3.75 7.69892 3.75 7.50001C3.75 7.3011 3.82901 7.11034 3.96966 6.96969L8.46966 2.46969C8.57455 2.3648 8.70819 2.29336 8.85368 2.26442C8.99917 2.23547 9.14997 2.25032 9.28702 2.30709C9.42407 2.36385 9.54121 2.45998 9.62362 2.58332C9.70604 2.70666 9.75002 2.85167 9.75002 3.00001V6.75001H18C18.1989 6.75001 18.3897 6.82903 18.5304 6.96968C18.671 7.11034 18.75 7.3011 18.75 7.50001Z" fill="#022E57"/>
</svg>
