<svg width="16" height="16" viewBox="0 0 16 16" fill="none" xmlns="http://www.w3.org/2000/svg">
<g clip-path="url(#clip0_55_679)">
<path d="M14.6665 7.33332H1.33317V13.3333C1.33317 13.5101 1.40341 13.6797 1.52843 13.8047C1.65346 13.9298 1.82303 14 1.99984 14H13.9998C14.1766 14 14.3462 13.9298 14.4712 13.8047C14.5963 13.6797 14.6665 13.5101 14.6665 13.3333V7.33332ZM4.6665 1.99999H1.99984C1.82303 1.99999 1.65346 2.07023 1.52843 2.19525C1.40341 2.32028 1.33317 2.48985 1.33317 2.66666V5.99999H14.6665V2.66666C14.6665 2.48985 14.5963 2.32028 14.4712 2.19525C14.3462 2.07023 14.1766 1.99999 13.9998 1.99999H11.3332V0.666656H9.99984V1.99999H5.99984V0.666656H4.6665V1.99999Z" fill="#022E57"/>
</g>
<defs>
<clipPath id="clip0_55_679">
<rect width="16" height="16" fill="white" transform="matrix(-1 0 0 1 16 0)"/>
</clipPath>
</defs>
</svg>
