<svg width="16" height="16" viewBox="0 0 16 16" fill="none" xmlns="http://www.w3.org/2000/svg">
<g clip-path="url(#clip0_114_2246)">
<path d="M1.3667 8.66642H5.01803C5.13211 10.7777 5.80507 12.8207 6.96803 14.5864C5.51132 14.3576 4.1715 13.6525 3.15804 12.5814C2.14459 11.5103 1.51464 10.1336 1.3667 8.66642ZM1.3667 7.33309C1.51464 5.86595 2.14459 4.4892 3.15804 3.41809C4.1715 2.34698 5.51132 1.6419 6.96803 1.41309C5.80507 3.17883 5.13211 5.22185 5.01803 7.33309H1.3667ZM14.6334 7.33309H10.982C10.868 5.22185 10.195 3.17883 9.03203 1.41309C10.4887 1.6419 11.8286 2.34698 12.842 3.41809C13.8555 4.4892 14.4854 5.86595 14.6334 7.33309ZM14.6334 8.66642C14.4854 10.1336 13.8555 11.5103 12.842 12.5814C11.8286 13.6525 10.4887 14.3576 9.03203 14.5864C10.195 12.8207 10.868 10.7777 10.982 8.66642H14.634H14.6334ZM6.35337 8.66642H9.6467C9.53697 10.4661 8.97023 12.208 8.00003 13.7278C7.02983 12.208 6.4631 10.4661 6.35337 8.66642ZM6.35337 7.33309C6.4631 5.53343 7.02983 3.79146 8.00003 2.27175C8.97023 3.79146 9.53697 5.53343 9.6467 7.33309H6.35337Z" fill="#29699A"/>
</g>
<defs>
<clipPath id="clip0_114_2246">
<rect width="16" height="16" fill="white"/>
</clipPath>
</defs>
</svg>
