<svg width="16" height="16" viewBox="0 0 16 16" fill="none" xmlns="http://www.w3.org/2000/svg">
<g clip-path="url(#clip0_0_341)">
<path d="M2 8.66674H6V7.3334H2V1.23074C2.00001 1.17281 2.01511 1.11589 2.04382 1.06558C2.07253 1.01528 2.11385 0.973316 2.16372 0.943842C2.21358 0.914368 2.27027 0.898396 2.32818 0.897501C2.3861 0.896606 2.44325 0.910818 2.494 0.938737L14.802 7.70807C14.8543 7.73685 14.8978 7.77912 14.9282 7.83048C14.9586 7.88184 14.9746 7.94041 14.9746 8.00007C14.9746 8.05973 14.9586 8.1183 14.9282 8.16966C14.8978 8.22102 14.8543 8.2633 14.802 8.29207L2.494 15.0614C2.44325 15.0893 2.3861 15.1035 2.32818 15.1026C2.27027 15.1017 2.21358 15.0858 2.16372 15.0563C2.11385 15.0268 2.07253 14.9849 2.04382 14.9346C2.01511 14.8842 2.00001 14.8273 2 14.7694V8.66674Z" fill="white"/>
</g>
<defs>
<clipPath id="clip0_0_341">
<rect width="16" height="16" fill="white"/>
</clipPath>
</defs>
</svg>
