<svg width="16" height="16" viewBox="0 0 16 16" fill="none" xmlns="http://www.w3.org/2000/svg">
<g clip-path="url(#clip0_114_2243)">
<path d="M13.3334 14.667H2.66675V13.3337C2.66675 12.4496 3.01794 11.6018 3.64306 10.9766C4.26818 10.3515 5.11603 10.0003 6.00008 10.0003H10.0001C10.8841 10.0003 11.732 10.3515 12.3571 10.9766C12.9822 11.6018 13.3334 12.4496 13.3334 13.3337V14.667ZM8.00008 8.66699C7.47479 8.66699 6.95465 8.56353 6.46935 8.36251C5.98405 8.16149 5.54309 7.86685 5.17165 7.49542C4.80022 7.12398 4.50558 6.68303 4.30456 6.19773C4.10354 5.71242 4.00008 5.19228 4.00008 4.66699C4.00008 4.1417 4.10354 3.62156 4.30456 3.13626C4.50558 2.65096 4.80022 2.21 5.17165 1.83857C5.54309 1.46713 5.98405 1.17249 6.46935 0.971474C6.95465 0.770455 7.47479 0.666992 8.00008 0.666992C9.06095 0.666992 10.0784 1.08842 10.8285 1.83857C11.5787 2.58871 12.0001 3.60613 12.0001 4.66699C12.0001 5.72786 11.5787 6.74527 10.8285 7.49542C10.0784 8.24556 9.06095 8.66699 8.00008 8.66699Z" fill="#29699A"/>
</g>
<defs>
<clipPath id="clip0_114_2243">
<rect width="16" height="16" fill="white"/>
</clipPath>
</defs>
</svg>
