<svg width="49" height="50" viewBox="0 0 49 50" fill="none" xmlns="http://www.w3.org/2000/svg">
<path d="M37.4516 21.5389C36.7541 22.2407 36.22 23.0877 35.8872 24.0193C35.5544 24.9511 35.4313 25.9448 35.5265 26.9296L35.4933 26.8965C35.5912 28.0558 35.4348 29.2223 35.0352 30.315C34.6357 31.4075 34.0026 32.3997 33.1801 33.2223C32.3574 34.0449 31.3652 34.6782 30.2725 35.0775C29.18 35.4771 28.0133 35.6335 26.8542 35.5356L26.8873 35.5688C25.5007 35.4397 24.1081 35.7414 22.8991 36.4328C21.6902 37.1243 20.724 38.1717 20.1323 39.4324C19.5406 40.6931 19.3519 42.1055 19.5923 43.4774C19.8329 44.8491 20.4904 46.1133 21.4756 47.0976C22.4608 48.0819 23.7256 48.7384 25.0975 48.9774C26.4696 49.2167 27.8817 49.0268 29.1419 48.4339C30.4021 47.8409 31.4486 46.874 32.1389 45.6644C32.8293 44.4549 33.1298 43.062 32.9995 41.6754L33.0345 41.7085C32.9366 40.5494 33.0928 39.3827 33.4924 38.2901C33.892 37.1976 34.5253 36.2054 35.3478 35.3827C36.1704 34.5602 37.1626 33.9269 38.2551 33.5275C39.3478 33.1279 40.5143 32.9715 41.6736 33.0694L41.6386 33.0363C42.7713 33.1381 43.9114 32.9524 44.9533 32.4963C45.995 32.0402 46.9049 31.3285 47.5984 30.4272C48.2919 29.526 48.7469 28.464 48.9206 27.3402C49.0945 26.2163 48.9819 25.0667 48.5932 23.9978C48.2045 22.929 47.5522 21.9757 46.697 21.226C45.8417 20.4764 44.811 19.9548 43.7005 19.7097C42.59 19.4645 41.4355 19.5035 40.3441 19.8232C39.2527 20.1431 38.2597 20.7332 37.4571 21.5389H37.4516Z" fill="#212121"/>
<path d="M23.8741 31.2289L23.8391 31.1958C24.8243 31.295 25.8192 31.1741 26.7522 30.8417C27.6849 30.5093 28.5323 29.9739 29.2327 29.274C29.933 28.5741 30.4693 27.7271 30.8023 26.7945C31.1354 25.8619 31.2571 24.8672 31.1586 23.8818L31.1936 23.9149C31.0957 22.7556 31.2521 21.5891 31.6515 20.4965C32.051 19.404 32.6843 18.4118 33.5068 17.5891C34.3295 16.7666 35.3217 16.1333 36.4142 15.7339C37.5069 15.3343 38.6734 15.1779 39.8327 15.2758L39.7977 15.2427C41.1845 15.373 42.5776 15.0722 43.7871 14.3815C44.9968 13.6909 45.9638 12.6439 46.5565 11.3834C47.1491 10.1229 47.3385 8.71034 47.0988 7.33825C46.8592 5.96617 46.2022 4.70144 45.2171 3.71654C44.2323 2.73165 42.9675 2.07454 41.5955 1.83487C40.2234 1.59519 38.8109 1.78459 37.5503 2.37725C36.2898 2.9699 35.243 3.93697 34.5522 5.14654C33.8615 6.35609 33.5608 7.74927 33.6911 9.13602L33.6579 9.10105C33.756 10.2603 33.6 11.4271 33.2006 12.5198C32.8012 13.6125 32.1679 14.6049 31.3454 15.4276C30.5227 16.2501 29.5303 16.8834 28.4377 17.2828C27.3448 17.6822 26.1781 17.8383 25.0188 17.7402L25.0519 17.7751C24.0667 17.6759 23.0716 17.7969 22.1389 18.1292C21.2061 18.4615 20.3588 18.997 19.6583 19.697C18.9578 20.3969 18.4217 21.2439 18.0886 22.1764C17.7556 23.109 17.634 24.1038 17.7324 25.0891L17.6993 25.056C17.7969 26.2151 17.6402 27.3816 17.2407 28.4741C16.8409 29.5664 16.2078 30.5586 15.3853 31.3811C14.5627 32.2036 13.5706 32.8367 12.4782 33.2365C11.3858 33.6361 10.2193 33.7927 9.06018 33.6951L9.09331 33.7283C7.70656 33.598 6.31338 33.8987 5.10381 34.5894C3.89426 35.2801 2.92719 36.327 2.33454 37.5875C1.74188 38.8481 1.55246 40.2606 1.79214 41.6327C2.03183 43.0047 2.68894 44.2695 3.67383 45.2543C4.65873 46.2394 5.92346 46.8964 7.29555 47.136C8.66763 47.3757 10.0802 47.1863 11.3407 46.5936C12.6012 46.001 13.6482 45.034 14.3388 43.8245C15.0295 42.6147 15.3303 41.2217 15.2 39.8349L15.2349 39.868C15.137 38.7087 15.2935 37.5423 15.693 36.4496C16.0924 35.3571 16.7257 34.3649 17.5482 33.5422C18.3709 32.7197 19.3631 32.0864 20.4556 31.687C21.5483 31.2874 22.7147 31.131 23.8741 31.2289Z" fill="white"/>
<path d="M11.5395 27.5351C12.2371 26.8335 12.7711 25.9865 13.1036 25.0547C13.4361 24.1229 13.5587 23.129 13.4628 22.1444L13.4977 22.1775C13.3998 21.018 13.5562 19.851 13.956 18.7581C14.3557 17.6652 14.9893 16.6729 15.8123 15.8502C16.6354 15.0275 17.6279 14.3944 18.721 13.9951C19.814 13.5958 20.9811 13.44 22.1406 13.5384L22.1056 13.5053C23.4918 13.6351 24.8845 13.3342 26.0935 12.6436C27.3025 11.953 28.2689 10.9063 28.8614 9.64623C29.4536 8.38614 29.6428 6.97404 29.4032 5.60248C29.1636 4.23091 28.5065 2.96666 27.5221 1.98212C26.5376 0.997586 25.2732 0.340689 23.9017 0.101024C22.5302 -0.138659 21.118 0.0505768 19.858 0.642874C18.5979 1.23517 17.5512 2.20173 16.8607 3.41073C16.1699 4.61972 15.869 6.01233 15.9989 7.3986L15.9658 7.36547C16.0637 8.52469 15.9073 9.6913 15.5077 10.7839C15.1082 11.8764 14.4751 12.8687 13.6525 13.6913C12.8299 14.5139 11.8376 15.1471 10.7451 15.5465C9.6525 15.9461 8.48591 16.1025 7.32669 16.0046L7.35982 16.0377C6.22714 15.9361 5.08714 16.1222 4.04548 16.5785C3.00382 17.0347 2.09417 17.7466 1.40085 18.6481C0.707527 19.5493 0.252969 20.6113 0.0792667 21.7351C-0.0944177 22.859 0.0183842 24.0086 0.407219 25.0772C0.796053 26.1459 1.44837 27.0991 2.30369 27.8485C3.159 28.5981 4.18966 29.1195 5.30016 29.3647C6.41064 29.6097 7.56503 29.5705 8.65637 29.2508C9.74769 28.9309 10.7406 28.3408 11.5432 27.5351H11.5395Z" fill="#212121"/>
</svg>
