<svg width="56" height="54" viewBox="0 0 56 54" fill="none" xmlns="http://www.w3.org/2000/svg">
<path d="M13.3334 26.6667C5.97336 26.6667 0 32.6134 0 40.0001C0 47.3868 5.97336 53.3335 13.3334 53.3335C20.6934 53.3335 26.6668 47.3602 26.6668 40.0001C26.6668 32.6401 20.7201 26.6667 13.3334 26.6667ZM7.89334 34.5601H13.3334C14.3467 34.5601 15.1467 35.3868 15.1467 36.3734C15.1467 37.3601 14.3201 38.1868 13.3334 38.1868H7.89334C6.88001 38.1868 6.08002 37.3601 6.08002 36.3734C6.08002 35.3868 6.88001 34.5601 7.89334 34.5601ZM18.7734 45.4401H7.86673C6.8534 45.4401 6.05333 44.6135 6.05333 43.6268C6.05333 42.6401 6.88006 41.8135 7.86673 41.8135H18.7734C19.7868 41.8135 20.5868 42.6401 20.5868 43.6268C20.5868 44.6135 19.7868 45.4401 18.7734 45.4401Z" fill="#FFB0B9"/>
<path d="M42.6667 0H15.9999C7.99987 0 2.66652 4.00002 2.66652 13.3334V21.7068C2.66652 23.6534 4.66656 24.8801 6.45323 24.1068C9.38658 22.8267 12.7199 22.3468 16.2132 22.9068C23.1999 24.0534 28.9066 29.5735 30.32 36.5068C30.72 38.5335 30.7733 40.5068 30.5066 42.4002C30.2933 43.9735 31.5733 45.3602 33.1466 45.3602H42.6667C50.6667 45.3602 56.0001 41.3602 56.0001 32.0268V13.36C56.0001 4 50.6667 0 42.6667 0Z" fill="#29699A"/>
<path d="M29.3334 23.6534C27.0933 23.6534 24.8267 22.9601 23.0933 21.5467L14.7466 14.88C13.8933 14.1867 13.7333 12.9333 14.4266 12.08C15.12 11.2267 16.3733 11.0667 17.2266 11.76L25.5733 18.4267C27.6 20.0534 31.04 20.0534 33.0667 18.4267L41.4134 11.76C42.2667 11.0667 43.5467 11.2 44.2134 12.08C44.9067 12.9333 44.7734 14.2134 43.8934 14.88L35.5467 21.5467C33.84 22.9601 31.5734 23.6534 29.3334 23.6534Z" fill="#FFB0B9"/>
</svg>
