<svg width="51" height="54" viewBox="0 0 51 54" fill="none" xmlns="http://www.w3.org/2000/svg">
<path d="M39.3728 7.91197C39.3728 7.9387 39.3728 7.9387 39.3728 7.96543C38.7045 7.9387 38.0363 7.91197 37.3146 7.91197H16.7328L19.5928 5.07863C22.2123 2.4324 25.0991 0 28.4403 0C31.8083 0 34.6951 2.4324 37.3146 5.07863L38.8114 6.57549C39.1856 6.92297 39.3728 7.4041 39.3728 7.91197Z" fill="#FFB0B9"/>
<path d="M49.129 29.857C50.1715 29.857 51.0001 29.0017 51.0001 27.9325V25.5803C51.0001 15.0755 47.7926 11.8947 37.3146 11.8947H20.4749H13.6856C3.20755 11.8947 0 15.1023 0 25.5803V26.7297C0 27.7988 0.828618 28.6275 1.87107 28.6275C4.11636 28.6275 5.90725 30.4451 5.90725 32.6636C5.90725 34.8822 4.11636 36.7265 1.87107 36.7265C0.828618 36.7265 0 37.5552 0 38.6243V39.7737C0 50.2784 3.20755 53.4593 13.6856 53.4593H20.4482H37.2878C47.7658 53.4593 50.9734 50.2517 50.9734 39.7737C50.9734 38.7313 50.1448 37.8759 49.1023 37.8759C46.857 37.8759 45.0661 36.085 45.0661 33.8665C45.0929 31.6479 46.8838 29.857 49.129 29.857ZM22.346 45.0662C22.346 46.1086 21.4906 46.964 20.4482 46.964C19.4057 46.964 18.5504 46.1086 18.5504 45.0662V37.9026C18.5504 36.8602 19.4057 36.0048 20.4482 36.0048C21.4906 36.0048 22.346 36.8602 22.346 37.9026V45.0662ZM22.346 27.4514C22.346 28.4938 21.4906 29.3492 20.4482 29.3492C19.4057 29.3492 18.5504 28.4938 18.5504 27.4514V20.2878C18.5504 19.2454 19.4057 18.39 20.4482 18.39C21.4906 18.39 22.346 19.2454 22.346 20.2878V27.4514Z" fill="#29699A"/>
</svg>
