<svg width="43" height="54" viewBox="0 0 43 54" fill="none" xmlns="http://www.w3.org/2000/svg">
<path d="M32.8951 0H10.105C2.68751 0 0 2.68751 0 10.2394V43.5108C0 51.0627 2.68751 53.7502 10.105 53.7502H32.8682C40.3126 53.7502 43.0002 51.0627 43.0002 43.5108V10.2394C43.0002 2.68751 40.3126 0 32.8951 0Z" fill="#29699A"/>
<path d="M26.8751 11.4218H16.1251C15.0232 11.4218 14.1094 10.5081 14.1094 9.4062C14.1094 8.30432 15.0232 7.39057 16.1251 7.39057H26.8751C27.977 7.39057 28.8907 8.30432 28.8907 9.4062C28.8907 10.5081 27.977 11.4218 26.8751 11.4218Z" fill="#FFB0B9"/>
<path d="M21.5004 46.4938C24.0979 46.4938 26.2036 44.3882 26.2036 41.7907C26.2036 39.1932 24.0979 37.0876 21.5004 37.0876C18.9029 37.0876 16.7973 39.1932 16.7973 41.7907C16.7973 44.3882 18.9029 46.4938 21.5004 46.4938Z" fill="#FFB0B9"/>
</svg>
