<svg width="56" height="57" viewBox="0 0 56 57" fill="none" xmlns="http://www.w3.org/2000/svg">
<path d="M42.8016 24.6159C42.0044 25.4179 41.394 26.3859 41.0137 27.4506C40.6334 28.5156 40.4927 29.6512 40.6015 30.7767L40.5636 30.7389C40.6755 32.0638 40.4967 33.3969 40.0401 34.6457C39.5834 35.8943 38.8599 37.0282 37.9199 37.9684C36.9796 38.9084 35.8457 39.6322 34.5969 40.0886C33.3484 40.5453 32.015 40.724 30.6903 40.6121L30.7282 40.65C29.1435 40.5026 27.5519 40.8473 26.1701 41.6375C24.7886 42.4278 23.6844 43.6248 23.0081 45.0656C22.3319 46.5065 22.1163 48.1206 22.391 49.6885C22.6659 51.2561 23.4174 52.7009 24.5434 53.8258C25.6693 54.9507 27.1148 55.701 28.6826 55.9742C30.2507 56.2476 31.8646 56.0306 33.3048 55.3531C34.745 54.6754 35.941 53.5703 36.73 52.1879C37.519 50.8056 37.8624 49.2137 37.7135 47.629L37.7535 47.6669C37.6416 46.3422 37.8202 45.0088 38.2768 43.7601C38.7334 42.5115 39.4572 41.3776 40.3972 40.4374C41.3374 39.4973 42.4714 38.7736 43.7199 38.3171C44.9687 37.8605 46.3018 37.6817 47.6268 37.7936L47.5868 37.7557C48.8812 37.8721 50.1843 37.6598 51.375 37.1386C52.5655 36.6174 53.6054 35.804 54.398 34.774C55.1905 33.744 55.7105 32.5303 55.9091 31.246C56.1078 29.9614 55.9791 28.6477 55.5349 27.426C55.0906 26.2046 54.3452 25.115 53.3677 24.2583C52.3903 23.4016 51.2124 22.8055 49.9432 22.5253C48.674 22.2452 47.3546 22.2898 46.1073 22.6551C44.86 23.0207 43.7252 23.695 42.8079 24.6159H42.8016Z" fill="#FFD7D5"/>
<path d="M27.2845 35.6901L27.2445 35.6522C28.3705 35.7656 29.5076 35.6274 30.5738 35.2475C31.6398 34.8676 32.6082 34.2558 33.4087 33.4558C34.209 32.6559 34.822 31.6879 35.2025 30.6222C35.5832 29.5564 35.7222 28.4195 35.6097 27.2933L35.6496 27.3312C35.5377 26.0063 35.7165 24.6732 36.173 23.4244C36.6296 22.1758 37.3534 21.0419 38.2934 20.1017C39.2336 19.1617 40.3675 18.4379 41.6161 17.9814C42.8649 17.5247 44.198 17.3461 45.5229 17.4579L45.483 17.4201C47.0679 17.569 48.6599 17.2252 50.0423 16.4359C51.4248 15.6466 52.5299 14.45 53.2072 13.0095C53.8845 11.5689 54.101 9.95453 53.8271 8.38644C53.5532 6.81834 52.8023 5.37294 51.6766 4.24733C50.5511 3.12175 49.1056 2.37076 47.5376 2.09686C45.9695 1.82293 44.3551 2.03939 42.9145 2.71672C41.4739 3.39403 40.2775 4.49926 39.4881 5.88162C38.6987 7.26397 38.355 8.85617 38.5039 10.441L38.4661 10.4011C38.5782 11.726 38.3998 13.0594 37.9434 14.3082C37.487 15.557 36.7632 16.6911 35.8232 17.6314C34.883 18.5714 33.7488 19.2952 32.5 19.7517C31.2511 20.2081 29.9177 20.3865 28.5928 20.2743L28.6307 20.3143C27.5047 20.2009 26.3674 20.3391 25.3014 20.719C24.2354 21.0987 23.267 21.7107 22.4665 22.5107C21.6659 23.3106 21.0532 24.2786 20.6725 25.3443C20.292 26.4101 20.153 27.547 20.2655 28.6732L20.2276 28.6353C20.3391 29.96 20.1601 31.2931 19.7035 32.5417C19.2466 33.7901 18.5231 34.924 17.5831 35.864C16.643 36.804 15.5092 37.5276 14.2607 37.9844C13.0122 38.4411 11.6791 38.6201 10.3544 38.5086L10.3922 38.5464C8.80735 38.3975 7.21515 38.7412 5.83279 39.5306C4.45044 40.32 3.34522 41.5164 2.66791 42.957C1.99058 44.3976 1.7741 46.012 2.04802 47.5801C2.32195 49.1481 3.07294 50.5936 4.19852 51.7191C5.32413 52.8448 6.76953 53.5957 8.33763 53.8696C9.90572 54.1435 11.5201 53.927 12.9607 53.2497C14.4012 52.5724 15.5978 51.4673 16.3871 50.085C17.1765 48.7024 17.5202 47.1104 17.3712 45.5255L17.4112 45.5633C17.2993 44.2384 17.4781 42.9053 17.9347 41.6565C18.3912 40.4079 19.1149 39.274 20.0549 38.3338C20.9952 37.3938 22.1291 36.67 23.3777 36.2136C24.6264 35.7569 25.9596 35.5782 27.2845 35.6901Z" fill="#C6E9F6"/>
<path d="M13.188 31.4687C13.9852 30.6669 14.5956 29.6989 14.9755 28.6339C15.3555 27.569 15.4957 26.4332 15.386 25.3079L15.426 25.3457C15.3141 24.0206 15.4928 22.6868 15.9497 21.4378C16.4065 20.1889 17.1306 19.0547 18.0712 18.1145C19.0119 17.1743 20.1462 16.4508 21.3954 15.9945C22.6446 15.5381 23.9784 15.3599 25.3035 15.4724L25.2635 15.4346C26.8478 15.583 28.4394 15.2391 29.8212 14.4499C31.2029 13.6606 32.3074 12.4643 32.9844 11.0243C33.6613 9.58416 33.8775 7.97034 33.6037 6.40283C33.3298 4.83532 32.5789 3.39047 31.4538 2.26528C30.3287 1.1401 28.8837 0.389359 27.3162 0.115456C25.7488 -0.158468 24.1349 0.057802 22.6949 0.734713C21.2547 1.41162 20.0585 2.51626 19.2693 3.89797C18.4799 5.27969 18.136 6.87123 18.2845 8.45554L18.2466 8.41768C18.3585 9.7425 18.1798 11.0758 17.7231 12.3244C17.2665 13.5731 16.5429 14.707 15.6028 15.6472C14.6627 16.5873 13.5287 17.3109 12.2801 17.7674C11.0314 18.2241 9.69818 18.4029 8.37336 18.291L8.41122 18.3288C7.11674 18.2127 5.81388 18.4254 4.6234 18.9468C3.43293 19.4682 2.39333 20.2818 1.60097 21.3121C0.808602 22.3421 0.289108 23.5557 0.0905905 24.8401C-0.107906 26.1246 0.0210105 27.4384 0.465393 28.6596C0.909775 29.881 1.65528 30.9704 2.63278 31.8269C3.61029 32.6836 4.78818 33.2795 6.05732 33.5596C7.32644 33.8396 8.64575 33.7948 9.89299 33.4294C11.1402 33.0639 12.275 32.3895 13.1922 31.4687H13.188Z" fill="#FFD7D5"/>
</svg>
