<svg width="16" height="16" viewBox="0 0 16 16" fill="none" xmlns="http://www.w3.org/2000/svg">
<g clip-path="url(#clip0_130_3298)">
<path d="M14.6668 6.66667V13.3333C14.6668 13.5101 14.5966 13.6797 14.4716 13.8047C14.3465 13.9298 14.177 14 14.0002 14H2.00016C1.82335 14 1.65378 13.9298 1.52876 13.8047C1.40373 13.6797 1.3335 13.5101 1.3335 13.3333V6.66667H14.6668ZM14.6668 5.33333H1.3335V2.66667C1.3335 2.48986 1.40373 2.32029 1.52876 2.19526C1.65378 2.07024 1.82335 2 2.00016 2H14.0002C14.177 2 14.3465 2.07024 14.4716 2.19526C14.5966 2.32029 14.6668 2.48986 14.6668 2.66667V5.33333ZM10.0002 10.6667V12H12.6668V10.6667H10.0002Z" fill="#29699A"/>
</g>
<defs>
<clipPath id="clip0_130_3298">
<rect width="16" height="16" fill="white"/>
</clipPath>
</defs>
</svg>
