<svg width="47" height="47" viewBox="0 0 47 47" fill="none" xmlns="http://www.w3.org/2000/svg">
<path d="M16.8024 12.9014C15.4864 12.9014 14.4524 13.9589 14.4524 15.2514C14.4524 16.5439 15.5099 17.6014 16.8024 17.6014C18.0949 17.6014 19.1524 16.5439 19.1524 15.2514C19.1524 13.9589 18.0949 12.9014 16.8024 12.9014Z" fill="#FF96AD"/>
<path d="M45.7312 7.14402C43.7571 2.56151 39.4096 0 33.3466 0H13.6535C6.11002 0 0 6.11002 0 13.6535V33.3466C0 39.4096 2.56151 43.7571 7.14402 45.7312C7.59053 45.9192 8.10753 45.8017 8.43653 45.4727L45.4727 8.43653C45.8252 8.08403 45.9427 7.56703 45.7312 7.14402ZM20.0456 24.0641C19.1291 24.9571 17.9306 25.3801 16.7321 25.3801C15.5336 25.3801 14.335 24.9336 13.4185 24.0641C11.0215 21.8081 8.38953 18.2126 9.40003 13.9355C10.293 10.058 13.724 8.31903 16.7321 8.31903C19.7401 8.31903 23.1711 10.058 24.0641 13.959C25.0511 18.2126 22.4191 21.8081 20.0456 24.0641Z" fill="#91CFEE"/>
<path d="M41.0545 43.5455C41.5715 44.0625 41.501 44.9085 40.8665 45.261C38.7985 46.4125 36.284 47 33.3465 47H13.6534C12.9719 47 12.6899 46.201 13.1599 45.731L27.3539 31.5369C27.8239 31.0669 28.5524 31.0669 29.0224 31.5369L41.0545 43.5455Z" fill="#29699A"/>
<path d="M47.0001 13.6534V33.3465C47.0001 36.284 46.4126 38.822 45.2611 40.8665C44.9086 41.501 44.0626 41.548 43.5456 41.0545L31.5136 29.0224C31.0435 28.5524 31.0435 27.8239 31.5136 27.3539L45.7076 13.1599C46.2011 12.6899 47.0001 12.9719 47.0001 13.6534Z" fill="#549FCC"/>
</svg>
