<svg width="24" height="24" viewBox="0 0 24 24" fill="none" xmlns="http://www.w3.org/2000/svg">
<path d="M18.3435 10.5328C18.0019 10.876 17.7403 11.2901 17.5773 11.7457C17.4143 12.2014 17.354 12.6873 17.4006 13.1689L17.3844 13.1527C17.4324 13.7196 17.3557 14.2901 17.16 14.8244C16.9643 15.3587 16.6542 15.8439 16.2514 16.2462C15.8484 16.6484 15.3624 16.9581 14.8273 17.1534C14.2922 17.3488 13.7207 17.4253 13.153 17.3774L13.1692 17.3936C12.4901 17.3305 11.8079 17.478 11.2158 17.8162C10.6237 18.1543 10.1504 18.6665 9.86063 19.283C9.57081 19.8995 9.47841 20.5902 9.59614 21.2611C9.71396 21.9318 10.036 22.5501 10.5186 23.0314C11.0011 23.5127 11.6206 23.8337 12.2926 23.9507C12.9646 24.0677 13.6563 23.9748 14.2735 23.6849C14.8907 23.3949 15.4033 22.922 15.7414 22.3305C16.0796 21.739 16.2268 21.0579 16.1629 20.3798L16.1801 20.396C16.1321 19.8292 16.2086 19.2587 16.4043 18.7244C16.6 18.1901 16.9102 17.7049 17.3131 17.3026C17.716 16.9004 18.202 16.5907 18.7371 16.3954C19.2723 16.2 19.8436 16.1235 20.4115 16.1714L20.3943 16.1552C20.9491 16.2049 21.5075 16.1141 22.0179 15.8911C22.5281 15.6681 22.9738 15.32 23.3134 14.8793C23.6531 14.4386 23.8759 13.9193 23.961 13.3697C24.0462 12.8201 23.991 12.2579 23.8007 11.7352C23.6103 11.2126 23.2908 10.7464 22.8719 10.3798C22.453 10.0132 21.9482 9.75813 21.4042 9.63825C20.8603 9.51837 20.2948 9.53745 19.7603 9.69378C19.2257 9.8502 18.7394 10.1387 18.3463 10.5328H18.3435Z" fill="white"/>
<path d="M11.6932 15.2712L11.6761 15.255C12.1586 15.3035 12.646 15.2444 13.1029 15.0818C13.5598 14.9193 13.9748 14.6575 14.3179 14.3152C14.6609 13.9729 14.9236 13.5587 15.0866 13.1027C15.2498 12.6467 15.3094 12.1602 15.2612 11.6783L15.2783 11.6945C15.2303 11.1276 15.3069 10.5572 15.5026 10.0229C15.6983 9.48861 16.0085 9.00341 16.4113 8.6011C16.8143 8.19888 17.3002 7.88919 17.8353 7.69388C18.3705 7.49846 18.9419 7.42202 19.5097 7.46987L19.4926 7.45367C20.1718 7.51739 20.8541 7.37029 21.4466 7.03255C22.0391 6.69481 22.5127 6.18282 22.803 5.56643C23.0932 4.95004 23.186 4.25925 23.0686 3.58828C22.9513 2.91731 22.6294 2.29884 22.147 1.81721C21.6646 1.33558 21.0451 1.01424 20.3731 0.897039C19.7011 0.77983 19.0092 0.872451 18.3918 1.16227C17.7744 1.45209 17.2617 1.925 16.9233 2.5165C16.585 3.10799 16.4377 3.78928 16.5016 4.46742L16.4853 4.45032C16.5334 5.01723 16.4569 5.58778 16.2613 6.12214C16.0657 6.6565 15.7555 7.14178 15.3527 7.54412C14.9497 7.94634 14.4636 8.25603 13.9285 8.45134C13.3932 8.64664 12.8217 8.72296 12.2539 8.67499L12.2701 8.69209C11.7876 8.64358 11.3002 8.70271 10.8433 8.86526C10.3865 9.02771 9.97144 9.28961 9.62835 9.63189C9.28526 9.97416 9.02267 10.3884 8.85951 10.8444C8.69643 11.3004 8.63685 11.7869 8.68507 12.2688L8.66885 12.2526C8.71663 12.8194 8.63991 13.3898 8.44421 13.9241C8.24841 14.4582 7.93831 14.9434 7.53545 15.3456C7.13256 15.7479 6.64664 16.0575 6.11158 16.2529C5.57651 16.4483 5.00518 16.5249 4.43744 16.4772L4.45367 16.4934C3.77444 16.4297 3.09207 16.5768 2.49963 16.9145C1.90719 17.2523 1.43353 17.7642 1.14325 18.3807C0.852966 18.9971 0.760189 19.6879 0.877585 20.3588C0.99498 21.0298 1.31683 21.6483 1.79923 22.1299C2.28163 22.6116 2.90109 22.9329 3.57313 23.05C4.24517 23.1672 4.93706 23.0746 5.55444 22.7848C6.1718 22.495 6.68461 22.0221 7.02289 21.4306C7.3612 20.8391 7.5085 20.1578 7.44468 19.4797L7.46181 19.4959C7.41385 18.929 7.49047 18.3585 7.68618 17.8242C7.88179 17.2899 8.19198 16.8047 8.59484 16.4024C8.99779 16.0002 9.48376 15.6905 10.0189 15.4952C10.5541 15.2998 11.1254 15.2233 11.6932 15.2712Z" fill="#91CFEE"/>
<path d="M5.652 13.4651C5.99367 13.122 6.25525 12.7078 6.41809 12.2522C6.58093 11.7965 6.641 11.3105 6.59402 10.829L6.61114 10.8452C6.56318 10.2782 6.63977 9.70745 6.83557 9.17302C7.03138 8.63859 7.34168 8.1533 7.74481 7.751C8.14794 7.34871 8.63409 7.03911 9.16946 6.84385C9.70483 6.64859 10.2764 6.57236 10.8444 6.62049L10.8272 6.60429C11.5062 6.6678 12.1883 6.52066 12.7805 6.18294C13.3727 5.84522 13.846 5.33336 14.1362 4.71716C14.4263 4.10096 14.5189 3.41042 14.4016 2.7397C14.2842 2.06898 13.9624 1.45074 13.4802 0.96929C12.998 0.487836 12.3787 0.166602 11.707 0.0494023C11.0352 -0.0678067 10.3435 0.0247329 9.72638 0.314376C9.10916 0.604019 8.5965 1.07668 8.25828 1.6679C7.91996 2.25912 7.77258 2.94013 7.83622 3.61804L7.81999 3.60184C7.86795 4.16871 7.79133 4.7392 7.59562 5.27349C7.39992 5.80777 7.08984 6.29298 6.68692 6.69525C6.28402 7.09752 5.79803 7.40716 5.26289 7.60249C4.72776 7.79789 4.15636 7.87439 3.58858 7.82651L3.60481 7.84271C3.05003 7.79303 2.49166 7.88402 1.98146 8.10713C1.47126 8.33025 1.02571 8.67837 0.686129 9.1192C0.346544 9.55994 0.123903 10.0792 0.0388245 10.6288C-0.0462454 11.1784 0.0090045 11.7406 0.199454 12.2631C0.389903 12.7858 0.709405 13.2519 1.12834 13.6184C1.54727 13.985 2.05208 14.2399 2.596 14.3598C3.1399 14.4796 3.70532 14.4604 4.23985 14.3041C4.77438 14.1477 5.26071 13.8591 5.6538 13.4651H5.652Z" fill="white"/>
</svg>
