<svg width="12" height="12" viewBox="0 0 12 12" fill="none" xmlns="http://www.w3.org/2000/svg">
<g clip-path="url(#clip0_0_299)">
<path d="M1 5.5H11V10C11 10.1326 10.9473 10.2598 10.8536 10.3536C10.7598 10.4473 10.6326 10.5 10.5 10.5H1.5C1.36739 10.5 1.24021 10.4473 1.14645 10.3536C1.05268 10.2598 1 10.1326 1 10V5.5ZM8.5 1.5H10.5C10.6326 1.5 10.7598 1.55268 10.8536 1.64645C10.9473 1.74021 11 1.86739 11 2V4.5H1V2C1 1.86739 1.05268 1.74021 1.14645 1.64645C1.24021 1.55268 1.36739 1.5 1.5 1.5H3.5V0.5H4.5V1.5H7.5V0.5H8.5V1.5Z" fill="#29699A"/>
</g>
<defs>
<clipPath id="clip0_0_299">
<rect width="12" height="12" fill="white"/>
</clipPath>
</defs>
</svg>
