<svg width="12" height="12" viewBox="0 0 12 12" fill="none" xmlns="http://www.w3.org/2000/svg">
<g clip-path="url(#clip0_115_2294)">
<path d="M4.914 2.5L3.914 3.5H2V9.5H10V3.5H8.086L7.086 2.5H4.914ZM4.5 1.5H7.5L8.5 2.5H10.5C10.6326 2.5 10.7598 2.55268 10.8536 2.64645C10.9473 2.74021 11 2.86739 11 3V10C11 10.1326 10.9473 10.2598 10.8536 10.3536C10.7598 10.4473 10.6326 10.5 10.5 10.5H1.5C1.36739 10.5 1.24021 10.4473 1.14645 10.3536C1.05268 10.2598 1 10.1326 1 10V3C1 2.86739 1.05268 2.74021 1.14645 2.64645C1.24021 2.55268 1.36739 2.5 1.5 2.5H3.5L4.5 1.5ZM6 9C5.27065 9 4.57118 8.71027 4.05546 8.19454C3.53973 7.67882 3.25 6.97935 3.25 6.25C3.25 5.52065 3.53973 4.82118 4.05546 4.30546C4.57118 3.78973 5.27065 3.5 6 3.5C6.72935 3.5 7.42882 3.78973 7.94454 4.30546C8.46027 4.82118 8.75 5.52065 8.75 6.25C8.75 6.97935 8.46027 7.67882 7.94454 8.19454C7.42882 8.71027 6.72935 9 6 9ZM6 8C6.46413 8 6.90925 7.81563 7.23744 7.48744C7.56563 7.15925 7.75 6.71413 7.75 6.25C7.75 5.78587 7.56563 5.34075 7.23744 5.01256C6.90925 4.68437 6.46413 4.5 6 4.5C5.53587 4.5 5.09075 4.68437 4.76256 5.01256C4.43437 5.34075 4.25 5.78587 4.25 6.25C4.25 6.71413 4.43437 7.15925 4.76256 7.48744C5.09075 7.81563 5.53587 8 6 8Z" fill="white"/>
</g>
<defs>
<clipPath id="clip0_115_2294">
<rect width="12" height="12" fill="white"/>
</clipPath>
</defs>
</svg>
