<svg width="24" height="24" viewBox="0 0 24 24" fill="none" xmlns="http://www.w3.org/2000/svg">
<g clip-path="url(#clip0_23_67)">
<path d="M18.9009 10C19.2959 10.6856 19.9459 11.1872 20.7092 11.3957C21.4724 11.6042 22.2872 11.5026 22.9759 11.113C23.0569 11.8366 22.9101 12.5675 22.5561 13.2039C22.2021 13.8402 21.6584 14.3502 21.0009 14.663L20.9999 21H14.9999V19C15.0006 18.2191 14.6968 17.4687 14.1531 16.9082C13.6093 16.3477 12.8685 16.0213 12.0879 15.9984C11.3073 15.9755 10.5486 16.2578 9.97289 16.7855C9.39719 17.3131 9.04992 18.0444 9.00486 18.824L8.99986 19V21H2.99986V14.664C2.34101 14.3517 1.79614 13.8414 1.44135 13.2044C1.08655 12.5675 0.939547 11.8356 1.02086 11.111C1.7095 11.5014 2.52453 11.6036 3.28826 11.3955C4.052 11.1874 4.70247 10.6858 5.09786 10H18.9009ZM17.0359 3C17.1074 3.4961 17.2846 3.97105 17.5556 4.39272C17.8266 4.81438 18.185 5.17293 18.6065 5.4441C19.0281 5.71527 19.5029 5.89273 19.999 5.96448C20.4951 6.03624 21.0008 6.00061 21.4819 5.86C21.3962 6.68858 21.0179 7.45945 20.4149 8.03408C19.8118 8.60872 19.0236 8.94943 18.1919 8.995L17.9999 9H5.99986C5.13383 9.00014 4.29851 8.6792 3.65536 8.09923C3.01222 7.51925 2.60694 6.72143 2.51786 5.86C2.99896 6.00061 3.50466 6.03624 4.00072 5.96448C4.49679 5.89273 4.97166 5.71527 5.3932 5.4441C5.81475 5.17293 6.17313 4.81438 6.44411 4.39272C6.71508 3.97105 6.89233 3.4961 6.96386 3H17.0359Z" fill="#FFEDEA"/>
</g>
<defs>
<clipPath id="clip0_23_67">
<rect width="24" height="24" fill="white"/>
</clipPath>
</defs>
</svg>
