<svg width="46" height="54" viewBox="0 0 46 54" fill="none" xmlns="http://www.w3.org/2000/svg">
<path d="M19.9037 0.419756L5.13038 5.95304C2.31001 7.02746 0 10.3582 0 13.3934V35.1505C0 37.3262 1.42361 40.2003 3.16955 41.4896L17.9429 52.5293C20.5484 54.4902 24.8192 54.4902 27.4247 52.5293L42.198 41.4896C43.9439 40.1735 45.3676 37.3262 45.3676 35.1505V13.3934C45.3676 10.385 43.0576 7.02747 40.2372 5.9799L25.4639 0.446616C23.9597 -0.144317 21.4348 -0.144317 19.9037 0.419756Z" fill="#29699A"/>
<path d="M19.0979 33.1091C18.5875 33.1091 18.0772 32.9211 17.6743 32.5182L13.3497 28.1936C12.5708 27.4146 12.5708 26.1253 13.3497 25.3464C14.1287 24.5674 15.418 24.5674 16.197 25.3464L19.0979 28.2473L29.2243 18.1209C30.0033 17.3419 31.2926 17.3419 32.0716 18.1209C32.8505 18.8998 32.8505 20.1891 32.0716 20.9681L20.5215 32.5182C20.1186 32.9211 19.6082 33.1091 19.0979 33.1091Z" fill="#FFB0B9"/>
</svg>
