<svg width="16" height="16" viewBox="0 0 16 16" fill="none" xmlns="http://www.w3.org/2000/svg">
<g clip-path="url(#clip0_114_2252)">
<path d="M7.58659 1.3457C7.09534 1.80345 6.70133 2.35545 6.42805 2.96878C6.15477 3.58211 6.00782 4.2442 5.99598 4.91555C5.98413 5.58691 6.10763 6.25377 6.3591 6.87635C6.61057 7.49894 6.98487 8.0645 7.45966 8.53929C7.93445 9.01408 8.50001 9.38838 9.1226 9.63985C9.74519 9.89133 10.4121 10.0148 11.0834 10.003C11.7548 9.99113 12.4168 9.84419 13.0302 9.57091C13.6435 9.29763 14.1955 8.90361 14.6533 8.41237C14.4413 11.9024 11.5439 14.6664 8.00059 14.6664C4.31792 14.6664 1.33325 11.6817 1.33325 7.9997C1.33325 4.45637 4.09725 1.55904 7.58659 1.3457Z" fill="#29699A"/>
</g>
<defs>
<clipPath id="clip0_114_2252">
<rect width="16" height="16" fill="white"/>
</clipPath>
</defs>
</svg>
