<svg width="32" height="32" viewBox="0 0 32 32" fill="none" xmlns="http://www.w3.org/2000/svg">
<g clip-path="url(#clip0_130_3072)">
<path d="M24.4853 23.1522L16 31.6376L7.51467 23.1522C5.83646 21.474 4.69358 19.3358 4.23057 17.008C3.76756 14.6803 4.00521 12.2675 4.91346 10.0748C5.82172 7.88205 7.35979 6.00792 9.33318 4.68935C11.3066 3.37078 13.6266 2.66699 16 2.66699C18.3734 2.66699 20.6934 3.37078 22.6668 4.68935C24.6402 6.00792 26.1783 7.88205 27.0865 10.0748C27.9948 12.2675 28.2324 14.6803 27.7694 17.008C27.3064 19.3358 26.1636 21.474 24.4853 23.1522ZM16 17.3336C16.7072 17.3336 17.3855 17.0526 17.8856 16.5525C18.3857 16.0524 18.6667 15.3741 18.6667 14.6669C18.6667 13.9596 18.3857 13.2814 17.8856 12.7813C17.3855 12.2812 16.7072 12.0002 16 12.0002C15.2928 12.0002 14.6145 12.2812 14.1144 12.7813C13.6143 13.2814 13.3333 13.9596 13.3333 14.6669C13.3333 15.3741 13.6143 16.0524 14.1144 16.5525C14.6145 17.0526 15.2928 17.3336 16 17.3336Z" fill="#F9672C"/>
</g>
<defs>
<clipPath id="clip0_130_3072">
<rect width="32" height="32" fill="white"/>
</clipPath>
</defs>
</svg>
