<svg width="16" height="16" viewBox="0 0 16 16" fill="none" xmlns="http://www.w3.org/2000/svg">
<g clip-path="url(#clip0_147_4081)">
<path d="M8.00016 14.6668C4.31816 14.6668 1.3335 11.6822 1.3335 8.00016C1.3335 4.31816 4.31816 1.3335 8.00016 1.3335C11.6822 1.3335 14.6668 4.31816 14.6668 8.00016C14.6668 11.6822 11.6822 14.6668 8.00016 14.6668ZM8.00016 13.3335C9.41465 13.3335 10.7712 12.7716 11.7714 11.7714C12.7716 10.7712 13.3335 9.41465 13.3335 8.00016C13.3335 6.58567 12.7716 5.22912 11.7714 4.22893C10.7712 3.22873 9.41465 2.66683 8.00016 2.66683C6.58567 2.66683 5.22912 3.22873 4.22893 4.22893C3.22873 5.22912 2.66683 6.58567 2.66683 8.00016C2.66683 9.41465 3.22873 10.7712 4.22893 11.7714C5.22912 12.7716 6.58567 13.3335 8.00016 13.3335ZM8.00016 11.3335C7.11611 11.3335 6.26826 10.9823 5.64314 10.3572C5.01802 9.73206 4.66683 8.88422 4.66683 8.00016C4.66683 7.11611 5.01802 6.26826 5.64314 5.64314C6.26826 5.01802 7.11611 4.66683 8.00016 4.66683C8.88422 4.66683 9.73206 5.01802 10.3572 5.64314C10.9823 6.26826 11.3335 7.11611 11.3335 8.00016C11.3335 8.88422 10.9823 9.73206 10.3572 10.3572C9.73206 10.9823 8.88422 11.3335 8.00016 11.3335Z" fill="#549FCC"/>
</g>
<defs>
<clipPath id="clip0_147_4081">
<rect width="16" height="16" fill="white"/>
</clipPath>
</defs>
</svg>
